# xmcd
# 
# Track frame offsets:
#     150
#     15235
#     32007
#     47027
#     75032
# 
# Disc length: 4440
# 
# Revision: 4
# Processed by: cddbd v1.5.2PL0 Copyright (c) Steve Scherf et al.
# Submitted via: fre:ac v1.0.31
# 
DISCID=23115605
DTITLE=Various Artist - ELEMENTS
DYEAR=2004
DGENRE=Anime
TTITLE0=RIDER CHIPS Featuring Ricky - ELEMENTS
TTITLE1=RIDER CHIPS Featuring Ricky - 熱風Rider
TTITLE2=RIDER CHIPS Featuring Ricky - ELEMENTS（オリジナル・カラオケ）
TTITLE3=RIDER CHIPS Featuring Ricky - 熱風Rider（オリジナル・カラオケ）
TTITLE4=a - データ
EXTD=YEAR: 2004
EXTT0=
EXTT1=
EXTT2=
EXTT3=
EXTT4=
PLAYORDER=
